<svg t="1700188003771" class="icon" viewBox="0 0 1029 1024" version="1.1" xmlns="http://www.w3.org/2000/svg" p-id="2193" width="200" height="200"><path d="M1024.824299 512.0128c0 282.765411-229.21667 511.9872-511.9872 511.9872-282.765411 0-511.9872-229.221789-511.9872-511.9872 0-282.770531 229.221789-511.9872 511.9872-511.987201 282.770531 0 511.9872 229.21667 511.9872 511.987201" fill="#333333" p-id="2194"></path><path d="M830.883548 511.557131c0 141.692458-103.866843 259.106482-239.61001 280.272033-0.496628-61.289988-14.929547-119.257179-40.262673-170.921807 58.663493-1.99675 105.6076-50.195225 105.6076-109.350226 0-58.776131-46.350201-106.739092-104.496588-109.299027 24.959376-51.741426 39.003185-109.718857 39.167021-170.973006C727.021824 252.460888 830.878428 369.890273 830.878428 511.557131" fill="#FFFFFF" p-id="2195"></path><path d="M534.80647 230.189445c0 96.606865-40.283153 183.798285-104.982976 245.682178a340.369091 340.369091 0 0 1-45.797255 36.842599 338.172666 338.172666 0 0 1-115.965101 49.560361 341.070513 341.070513 0 0 1-73.275608 7.920442V397.18943c92.234494 0 166.999985-74.765491 166.999985-166.999985h173.020955zM534.79623 793.836154H363.306117c-0.747501-92.434169-75.912342-167.138222-168.520587-167.138221 30.555396 0 60.312092-3.455914 88.870739-10.00423a394.342781 394.342781 0 0 0 146.172345-67.147122c64.38239 61.59206 104.588745 148.245894 104.967616 244.294693" fill="#FF6600" p-id="2196"></path></svg>
