<svg t="1700187987503" class="icon" viewBox="0 0 1024 1024" version="1.1" xmlns="http://www.w3.org/2000/svg" p-id="2046" width="200" height="200"><path d="M514.328199 0.183403c-281.370746 0-509.452736 228.087085-509.452736 509.452736 0 281.370746 228.08199 509.452736 509.452736 509.452737 281.360557 0 509.452736-228.08199 509.452736-509.452737 0-281.365652-228.092179-509.452736-509.452736-509.452736" fill="#3886CA" p-id="2047"></path><path d="M514.328199 30.796418c264.03407 0 478.834627 214.805652 478.834627 478.839721s-214.800557 478.839721-478.834627 478.839722-478.839721-214.805652-478.839721-478.834627c0-264.039164 214.805652-478.844816 478.834626-478.844816" fill="#FFFFFF" p-id="2048"></path><path d="M509.177632 136.069731L163.799244 740.010667H336.493532l260.737911-449.546189z" fill="#0B61A2" p-id="2049"></path><path d="M659.231841 397.118408l202.140657 342.892259h-160.594787L493.674985 487.648159z" fill="#3886CA" p-id="2050"></path><path d="M490.577512 497.567204l86.810747 109.124776-227.572538 133.318687z" fill="#08416E" p-id="2051"></path></svg>
