<svg t="1701394358148" class="icon" viewBox="0 0 1024 1024" version="1.1" xmlns="http://www.w3.org/2000/svg" p-id="1305"
     width="200" height="200">
    <path d="M782.72512 327.9104l-242.54464-242.54464a35.84512 35.84512 0 0 0-13.76256-10.7008c-0.22016-0.09728-0.44032-0.2048-0.67072-0.30208a33.97632 33.97632 0 0 0-13.34272-2.73408l-0.08704 0.00512-0.32256-0.01536c-0.09216 0-0.1792 0.01536-0.27136 0.01536-0.09728 0-0.18944-0.01536-0.2816-0.01536a33.7664 33.7664 0 0 0-20.21376 6.66624 35.96288 35.96288 0 0 0-6.79936 6.27712l-243.3536 243.36384c-6.97856 6.97856-10.85952 15.97952-11.0848 25.4208a35.4304 35.4304 0 0 0 9.3696 24.9344l0.512 0.512a34.49344 34.49344 0 0 0 24.01792 9.57952 36.5568 36.5568 0 0 0 26.33728-11.29472L476.16 191.14496v499.99872a35.84 35.84 0 1 0 71.68 0v-499.8144l185.73312 185.73312c6.97856 6.97856 15.97952 10.85952 25.41568 11.0848l0.86016 0.01024c9.1136 0 17.60768-3.43552 24.07936-9.37984l0.512-0.512c13.30176-13.83424 12.76928-36.38272-1.7152-50.3552z"
          fill="#4A576A" p-id="1306"></path>
    <path d="M880.64 747.57632v61.44c0 39.58784-32.09216 71.68-71.68 71.68H215.04c-39.58784 0-71.68-32.09216-71.68-71.68v-61.44a35.84 35.84 0 1 0-71.68 0v61.44c0 79.17568 64.18432 143.36 143.36 143.36h593.92c79.17568 0 143.36-64.18432 143.36-143.36v-61.44a35.84 35.84 0 1 0-71.68 0z"
          fill="#666666" p-id="1307"></path>
</svg>
