<svg t="1699017014727" class="icon" viewBox="0 0 1024 1024" version="1.1" xmlns="http://www.w3.org/2000/svg" p-id="1227"
     width="200" height="200">
    <path d="M511.4368 83.3024a427.0592 427.0592 0 1 0 427.1104 427.0592 427.0592 427.0592 0 0 0-427.1104-427.0592z m181.504 415.744a20.48 20.48 0 1 1-23.7056-33.1264 89.1392 89.1392 0 1 0-140.6464-72.704l0.8704 215.04A130.048 130.048 0 1 1 332.8 496.64a20.48 20.48 0 0 1 20.992 35.1744 89.088 89.088 0 1 0 134.656 76.8l-0.8704-215.04a130.0992 130.0992 0 1 1 205.312 106.0352z"
          fill="rgba(53, 53, 53, 0.5)" p-id="1228"></path>
</svg>
