<svg t="1698722787644" class="icon" viewBox="0 0 1024 1024" version="1.1" xmlns="http://www.w3.org/2000/svg" p-id="6725"
     width="200" height="200">
    <path d="M909.059 245.633H114.941C85.705 245.633 62 221.929 62 192.692c0-29.237 23.705-52.941 52.941-52.941h794.118c29.236 0 52.941 23.705 52.941 52.941 0 29.237-23.705 52.941-52.941 52.941zM644.354 564.948H114.941C85.705 564.948 62 541.243 62 512.007c0-29.237 23.705-52.941 52.941-52.941h529.413c29.236 0 52.94 23.705 52.94 52.941 0 29.236-23.704 52.941-52.94 52.941zM803.177 884.249H114.941c-29.236 0-52.941-23.704-52.941-52.94 0-29.237 23.705-52.941 52.941-52.941h688.236c29.236 0 52.94 23.704 52.94 52.941 0 29.236-23.704 52.94-52.94 52.94z"
          fill="#FFFFFF" p-id="6726"></path>
</svg>
